<?xml version="1.0" encoding="utf-8"?>
<!-- Generator: Adobe Illustrator 26.3.1, SVG Export Plug-In . SVG Version: 6.00 Build 0)  -->
<svg version="1.1" id="Layer_1" xmlns="http://www.w3.org/2000/svg" xmlns:xlink="http://www.w3.org/1999/xlink" x="0px" y="0px"
	 viewBox="0 0 1000 1000" style="enable-background:new 0 0 1000 1000;" xml:space="preserve">
<g>
	<path d="M182.3,232v425.9h-65.2V232H182.3z M255.5,657.9H150.3v-56.6h101.8c32.4,0,59.3-6.1,80.7-18.3c21.4-12.2,37.4-30,48-53.4
		c10.6-23.4,15.9-51.8,15.9-85.2c0-33.3-5.3-61.6-15.9-84.7s-26.3-40.8-47.2-52.9c-20.9-12.1-46.8-18.1-77.9-18.1H148.3V232h111.5
		c41.9,0,77.8,8.5,107.8,25.4c29.9,17,52.9,41.3,69,73.2c16.1,31.8,24.2,69.7,24.2,113.8c0,44.2-8.1,82.3-24.3,114.2
		c-16.2,31.9-39.5,56.4-70,73.6C335.9,649.3,298.9,657.9,255.5,657.9z"/>
	<path d="M535.9,657.9V232h74.3l160.6,254.4c5.1,7.8,11,17.4,17.4,28.7c6.5,11.3,13.4,24,20.7,38c7.3,14,14.5,28.9,21.6,44.7
		l-7.7,3.1c-1.3-15-2.4-30.4-3.3-46c-0.9-15.6-1.4-30.3-1.7-44c-0.3-13.7-0.4-25.1-0.4-34V232h65.5v425.9h-74.6l-144-227.5
		c-6.9-11.2-14-23.1-21.3-35.4c-7.3-12.4-15.5-26.8-24.6-43.2c-9.1-16.4-19.8-35.9-32.2-58.6l10-2.9c1.1,21.2,2.1,40.8,2.9,58.9
		c0.8,18.1,1.4,34.1,1.9,47.9c0.5,13.8,0.7,24.8,0.7,33v227.8H535.9z"/>
	<path d="M72,768v-45.2h856V768H72z"/>
</g>
</svg>
